<?xml version="1.0" encoding="utf-8"?>
<!-- Generator: Adobe Illustrator 16.0.0, SVG Export Plug-In . SVG Version: 6.00 Build 0)  -->
<!DOCTYPE svg PUBLIC "-//W3C//DTD SVG 1.1//EN" "http://www.w3.org/Graphics/SVG/1.1/DTD/svg11.dtd">
<svg version="1.1" id="레이어_1" xmlns="http://www.w3.org/2000/svg" xmlns:xlink="http://www.w3.org/1999/xlink" x="0px"
	 y="0px" width="54px" height="54px" viewBox="0 0 54 54" enable-background="new 0 0 54 54" xml:space="preserve">
<g>
	<path fill="#0085CD" d="M28.693,13.765l1.836-1.836c0.248-0.249,0.395-0.586,0.387-0.938c-0.006-0.326-0.137-0.629-0.367-0.858
		c-0.01-0.011-0.021-0.021-0.033-0.032c-0.488-0.455-1.277-0.433-1.762,0.049l-0.607,0.608c-0.187,0.188-0.496,0.188-0.683,0
		l-0.609-0.608c-0.482-0.481-1.271-0.504-1.76-0.049c-0.246,0.229-0.387,0.537-0.4,0.871c-0.016,0.357,0.133,0.704,0.387,0.958
		l1.836,1.835C27.407,14.255,28.203,14.255,28.693,13.765z"/>
	<path fill="#0085CD" d="M34.469,14.054c-0.391-0.365-1.008-0.338-1.389,0.041l-1.734,1.736c-0.379,0.379-0.408,0.996-0.043,1.389
		c0.385,0.41,1.027,0.42,1.422,0.025l1.771-1.77C34.889,15.082,34.881,14.437,34.469,14.054z"/>
	<path fill="#0085CD" d="M23.721,15.849l-1.752-1.754c-0.379-0.379-0.994-0.406-1.387-0.041c-0.414,0.383-0.422,1.027-0.025,1.422
		l1.752,1.752c0.379,0.38,0.996,0.408,1.389,0.043C24.108,16.888,24.116,16.244,23.721,15.849z"/>
	<path fill="#0085CD" d="M42.799,28.842c-0.008-0.01-0.018-0.018-0.027-0.025c-0.346-0.336-0.762-0.568-1.219-0.684l0.068-0.068
		c0.488-0.489,0.799-1.141,0.834-1.834c0.039-0.744-0.219-1.451-0.723-1.99c-0.02-0.023-0.043-0.047-0.066-0.072
		c-0.4-0.4-0.904-0.66-1.453-0.756c0.146-0.322,0.229-0.673,0.24-1.033c0.027-0.726-0.23-1.415-0.721-1.942
		c-0.023-0.024-0.045-0.048-0.068-0.07l-0.186-0.187c-0.514-0.512-1.207-0.797-1.932-0.797c-0.004,0-0.008,0-0.01,0
		c-0.979-0.01-1.598,0.362-2.412,1.213l-0.078,0.102c-0.285,0.433-0.303,0.959,0.076,1.338c0.506,0.504,1.104,0.404,1.523-0.016
		l0.494-0.496c0.35-0.35,0.916-0.322,1.244,0.045c0.053,0.061,0.086,0.073,0.145,0.187c0.227,0.438,0.139,0.974-0.211,1.321
		l-1.035,1.037c-0.426,0.426-0.441,1.131-0.016,1.555c0.004,0.004,0.008,0.01,0.014,0.014c0.426,0.412,1.102,0.404,1.521-0.014
		l0.34-0.342c0.35-0.35,0.916-0.322,1.246,0.045c0.053,0.061,0.084,0.074,0.141,0.188c0.23,0.438,0.141,0.973-0.207,1.322
		l-1.656,1.657c-0.428,0.426-0.441,1.133-0.018,1.555c0.004,0.006,0.01,0.012,0.016,0.014c0.424,0.41,1.102,0.406,1.52-0.014
		l0.006-0.006c0.373-0.373,0.98-0.381,1.357-0.014l0.012,0.012c0.188,0.189,0.283,0.436,0.283,0.684
		c0,0.246-0.096,0.494-0.283,0.682l-7.637,7.639c-0.406,0.404-0.842,0.756-1.305,1.055c-1.197,0.775-2.559,1.197-3.934,1.264
		l7.627-7.629c0.525-0.525,0.836-1.236,0.83-1.98c-0.008-0.717-0.289-1.393-0.799-1.9c-0.008-0.008-0.018-0.018-0.025-0.025
		c-0.348-0.336-0.764-0.568-1.221-0.682l0.068-0.07c0.49-0.49,0.797-1.141,0.834-1.834c0.037-0.742-0.219-1.451-0.721-1.988
		c-0.023-0.025-0.045-0.049-0.068-0.072c-0.4-0.4-0.904-0.662-1.453-0.756c0.145-0.324,0.227-0.674,0.24-1.035
		c0.025-0.725-0.23-1.414-0.721-1.941c-0.023-0.024-0.047-0.048-0.07-0.07c-0.514-0.514-1.197-0.798-1.922-0.798
		c-0.555,0-1.082,0.165-1.529,0.47c-0.107-0.457-0.328-0.881-0.654-1.231c-0.023-0.024-0.047-0.048-0.068-0.07
		c-0.508-0.509-1.183-0.79-1.898-0.798c-0.746-0.007-1.457,0.303-1.984,0.829l-5.127,5.128c-0.018-0.111-0.045-0.221-0.072-0.33
		c-0.145-0.5-0.412-0.973-0.807-1.367c-0.002-0.002-0.006-0.006-0.01-0.01c-0.893-0.884-2.334-0.876-3.221,0.012l-2.52,2.52
		c-0.369,0.367-0.705,0.764-1.01,1.186l-0.117,0.16c-1.223,1.69-1.895,3.727-1.863,5.811c0.002,0.061,0.004,0.119,0.006,0.18
		c0.082,2.467,1.09,4.789,2.836,6.535l1.738,1.738c0.926,0.924,2.006,1.643,3.211,2.133c1.162,0.471,2.391,0.709,3.65,0.709
		c1.658,0,3.27-0.418,4.703-1.215c0.576,0.107,1.162,0.158,1.753,0.158c1.879,0.002,3.701-0.535,5.271-1.553
		c0.57-0.369,1.107-0.805,1.592-1.289l7.604-7.605c0.525-0.525,0.836-1.238,0.83-1.982C43.592,30.023,43.309,29.352,42.799,28.842z
		 M21.844,42.471c-2.033,0-4.068-0.775-5.619-2.328l-1.74-1.738c-2.967-2.967-3.096-7.699-0.389-10.821l3.059-3.088
		c0.205-0.203,0.541-0.207,0.746-0.002l0.002,0.004c0.549,0.545,0.551,1.434,0.002,1.98l-1.268,1.268
		c-0.424,0.426-0.439,1.131-0.016,1.555c0.004,0.004,0.01,0.01,0.014,0.014c0.137,0.135,0.303,0.223,0.475,0.268
		c0.363,0.096,0.766,0.002,1.047-0.281l8.352-8.352c0.35-0.35,0.916-0.322,1.242,0.046c0.055,0.06,0.086,0.071,0.146,0.186
		c0.226,0.437,0.138,0.974-0.211,1.322L22.18,28.01c-0.426,0.426-0.441,1.131-0.016,1.555c0.002,0.006,0.008,0.01,0.014,0.014
		c0.424,0.41,1.104,0.404,1.521-0.014l6.984-6.986c0.348-0.349,0.916-0.322,1.244,0.046c0.053,0.059,0.084,0.072,0.145,0.186
		c0.227,0.438,0.139,0.973-0.211,1.322l-6.779,6.782c-0.426,0.424-0.441,1.129-0.016,1.553c0.004,0.006,0.01,0.01,0.012,0.016
		c0.426,0.41,1.104,0.404,1.523-0.016l6.083-6.084c0.35-0.35,0.916-0.322,1.244,0.045c0.053,0.061,0.084,0.072,0.143,0.186
		c0.23,0.438,0.141,0.975-0.209,1.322l-5.35,5.352c-0.426,0.428-0.441,1.131-0.018,1.557c0.004,0.004,0.008,0.008,0.014,0.014
		c0.426,0.41,1.102,0.404,1.521-0.016l3.699-3.699c0.373-0.373,0.98-0.383,1.359-0.014l0.01,0.012
		c0.189,0.188,0.285,0.436,0.285,0.682c0,0.248-0.096,0.494-0.285,0.684l-7.634,7.637c-0.381,0.381-0.791,0.715-1.223,1.002
		c-0.029,0.02-0.055,0.037-0.082,0.055c-0.676,0.438-1.4,0.762-2.154,0.973C23.301,42.371,22.573,42.471,21.844,42.471z"/>
</g>
</svg>
